<?xml version="1.0" encoding="utf-8"?>
<svg viewBox="0 0 700 700" xmlns="http://www.w3.org/2000/svg">
  <path fill="#120722" d="M251 387h32v-1l-11-10c-2-1-5-4-8-4h-46l-17 1 3-18 1-1h42l1-2-4-3-14-12c-2-2-4-4-6-4h-12l1-5 5-15h131c6 0 9-3 8-11h-37l-7-3c-5-2-9-5-14-6h-25l-2 2-4-2h-47v-8l2-11 4-2h41l13-2 2-1 4-1v-2l-11-4 5-8h-21l-31 1 2-19 1-4h57c2 0 4 0 4-3l4-8 3-4h-18l-42-1h-2l-2-5 4-14h67l5-3 7-13h-62l-3 1h-4c-4 0-5-1-5-5l4-18h74c10 1 18 0 25-6l8-5 2-2h6l24-3h39a965 965 0 0 0 18 5l6 3h2v1h2v1h1l2 2 4 3 2-7v-3l1-2v-2l3-9v-2l3-6 1-3 1-1 3-5 1-1 17-20H187l-3 1-1-6 4-20a81671 81671 0 0 0 277 0h142l19 4h1c10 3 19 9 27 15l13 12 1 1 11 14 11 23 1 5 4 26 1 13-1 14-3 8-4 24-5 26-10 43-1 2a2853 2853 0 0 0-12 53l-6 24-2 12-4 14-6 28a7574 7574 0 0 1-23 94l-4 20-2 11-2 1-27-1c2-4-3-4-3-6l8-2 2-1 6-20 1-16c1-8 1-8-6-8h-27l-43-1 13-51 10-39 2-7c0-2 0-4-2-5l-27-22-56-44 14-29v-1l1-1 1-1 12 7 40 29c7 6 15 9 25 9h12l57 1c3 0 6 0 7-4l2-12 1-1v-1a1613 1613 0 0 1 9-35h-9c-18 0-37-1-55 1-16 1-29-3-40-14-4-4-6-7-7-13l-5-36 1-7h1l9 2 4 1c12 1 22 0 33-5 28-11 45-41 40-69l-7-22-1-2a65 65 0 0 0-71-33c-30 6-51 29-53 59-1 12 1 25 5 37l-49-28-9-3h-49c-21 1-36 12-46 31l-24 46-12 24 11 5 1 1 10 8 27 6c2 0 5-1 6-3l10-20 2-2 23-39c1-2 4-5 6-5l22 6 7 2c0-1 0 0 0 0l7 5 7 4v1h-8l-6-2-5 2-50 95c-2 4-4 5-8 5H251l3 6 5 6 13 13 31 25c6 4 11 7 19 7h90c7 0 8-1 8-8l2-4h5l18 15 26 20c4 3 5 6 3 11l-1 4-10 36c-9-4 0-7 0-11l-13-6h-1a82 82 0 0 0-65-42c-17-2-33-1-50-2-26 0-50 4-73 17l-6 1-12 12 1 4-3 3c-5 2-8 5-8 11 0 3 0 8-6 7v2l1 18c0 2-3 3-5 5l-2-4v-15c0-2 0-5-2-6h-7l1 4c6 2 4 7 4 11s2 9-5 11l-2 4 3 3c4 2 10 0 12-4l5-3c-2 14-2 14 6 23v1l-2 3-2 3-5-7c-1-1-3-3-5-3h-49l1-8 1-2 1-6 1-1v-4l1-4h1v-3l1-1 1-7 1-1 1-7h1l1-7 9-36 2-6 2-7h-72l-4 3-18 69-17 60c-5 2-5 5-2 8l-1 4-6 2-17 6v-4l3-13 13-53 4-16 5-14 8-34 2-12a972 972 0 0 0 8-25h147m376-275-4-2v-1l-12-5-2 1c26 27 33 58 18 92-14 34-41 51-79 53l4 24h12a2400 2400 0 0 1 55 0h21l4-1 8-33v-2l8-32c5-28 2-54-16-76-5-7-11-11-17-17v-1m-64 306-20 80c19-5 37-8 55-8l4-4 6-26 11-43 2-11h-45c-11 0-11 0-13 12m41-49h-61l17 15h3a5691 5691 0 0 0 56-2l4-13h-19M67 539l-3 12h1l2-4 6-22v-5h-2l-4 19m322-293-2 3 2 1 9-18-1-1-8 15M73 512h1l1-4h-1l-1 4z"/>
  <path fill="#130A23" d="M592 603c-2 12-11 20-19 27l-3 3-3 1c-10 5-21 8-32 8H114a64 64 0 0 1-43-20c-6-7-10-14-11-24l-2-19c4 3 7 5 12 4l2 2c0 12 3 23 12 31 10 10 23 14 37 14h374l49-1c22-2 39-24 37-45l24-4-10 5-3 18z"/>
  <path fill="#939195" d="M599 72H206v-2h393v2z"/>
  <path fill="#C2C6D0" d="M362 97h46l-2 19-35-1-6-11-3-2a76 76 0 0 1 0-5z"/>
  <path fill="#97969C" d="M114 642h421c11 0 22-3 32-8l3-1c-5 3-10 7-16 8-9 2-18 2-27 2H114v-1z"/>
  <path fill="#180D26" d="M164 271v14l-3 8h-22c-2 1-5-2-6 2l1-1h-2l1-5 2-14 4-3h12l13-1z"/>
  <path fill="#180D27" d="m142 357-3 16h-27l-4 1-2-3 5-17h28c2 0 3 0 3 3z"/>
  <path fill="#160C23" d="M173 231c4 6 0 12-1 18l-2 4h-27l-1-9c1-13 10-12 19-12h3l9-1z"/>
  <path fill="#191028" d="M161 182v-8l3-13 26-1 2 3-5 19h-26z"/>
  <path fill="#160C23" d="m144 178-1 4h-26v-5l2-11c1-6 4-6 9-6l19-1-3 19z"/>
  <path fill="#120722" d="m119 333 1-7 6-13h27v2l-4 18h-30z"/>
  <path fill="#21172D" d="m95 159-1 15c-1 8-2 8-10 8H72c-4 0-5-2-4-6l4-17h23z"/>
  <path fill="#150B22" d="m172 137 4-21h6l18-1v8l-1 8-2 6h-25z"/>
  <path fill="#160C23" d="m152 216-2-4c1-5 2-10 5-15h18l8-1 2 3-4 14s0-1 0 0l-4 3h-23z"/>
  <path fill="#150B22" d="M123 232c3 2 2 4 1 7l-4 14H96l-1-2 1-8 4-11h23z"/>
  <path fill="#180E24" d="M134 196c4 4 1 8 1 12l-3 9-25-1-1-6 5-13h10l13-1z"/>
  <path fill="#120722" d="M58 333v-1l-15 1-12-1 4-19h25l-3 16 1 4z"/>
  <path fill="#160D26" d="m107 95-3 2a382 382 0 0 1-22-2l2-9c3-11 3-11 14-11l11-1v1l-2 13v7z"/>
  <path fill="#130921" d="M157 116v1l-3 14c-1 4-2 6-7 6h-18l1-12 1-7 5-2h21z"/>
  <path fill="#1A1126" d="m9 408-1-4 3-14 4-3h17c2 0 4 1 3 4l-5 17H9z"/>
  <path fill="#150C22" d="m113 271-4 22H87l1-7 3-15h22z"/>
  <path fill="#180F25" d="m190 250 4-18 20-1c1 2 2 5 1 7l-2 12-2 3h-20l-1-3zM229 178l-2 4h-20v-7l3-12c0-2 1-3 4-3l16-2 1 1-2 11v8z"/>
  <path fill="#170B24" d="m158 373 4-19h21l4 2-1 5-4 12h-24z"/>
  <path fill="#140922" d="m76 231 1 2-5 20H51v-2a413 413 0 0 1 3-19l22-1z"/>
  <path fill="#191024" d="m162 75-4 20-1 1h-18l-2-4 1-6 4-11h20z"/>
  <path fill="#170F25" d="M182 284v-2l4-10h5l14-1c3 5-1 9 0 14l-1 3-2 5h-20v-9z"/>
  <path fill="#130921" d="m235 115 5 2-2 12-1 3-1 5h-19v-5a866 866 0 0 0 3-16l15-1z"/>
  <path fill="#180F25" d="m222 197-2 17c-8 4-15 2-22 1l1-14 2-4h21z"/>
  <path fill="#140922" d="M170 333v-2l5-18h19v3l-3 17h-21z"/>
  <path fill="#11091E" d="m51 408-1-1 4-15c0-3 1-4 4-4h16l-4 20H51z"/>
  <path fill="#F9F8FC" d="M362 97v2H189l-5-1 3-1h175z"/>
  <path fill="#B7BAC7" d="m229 255 31-1h21l-5 8 11 5v1l-4 1h-5c-6-2-7-7-10-11-1-1-2-4-3 0l-4-2h-28l-4-1z"/>
  <path fill="#A0A4A7" d="m257 115 6-1a17571 17571 0 0 1 100 2H258l-1-1z"/>
  <path fill="#E8E9E7" d="m288 313-70-1-1-1h65v-5l6 7z"/>
  <path fill="#EBEDEA" d="M251 387H104l3-1a117025 117025 0 0 1 144 1z"/>
  <path fill="#DFDDDF" d="M323 159a4417 4417 0 0 1-72-2h71l1 2z"/>
  <path fill="#C8C8C9" d="m311 194-4 3h-67l5-2h58l6-1h2zM293 229c0 3-2 3-4 3h-56l4-2h49l7-1z"/>
  <path fill="#ABABAD" d="M94 424a828 828 0 0 1-7 19l5-18 2-1z"/>
  <path fill="#85848B" d="M218 372h46c3 0 6 3 8 4l-1 1c-5-4-11-3-17-3h-35l-1-2z"/>
  <path fill="#9C9AA2" d="M659 350a1333 1333 0 0 1 9-30l-7 29-2 1z"/>
  <path fill="#B1B5BF" d="M271 377h1l11 9v1h-24l2-1c8 0 8 0 10-9z"/>
  <path fill="#DFDDDF" d="m221 294 15-1a2084 2084 0 0 1-15 1z"/>
  <path fill="#A09DA6" d="M614 547a231 231 0 0 1 10-45 323 323 0 0 1-10 45z"/>
  <path fill="#EBEDEA" d="M265 258c1-4 2-1 3 0 3 4 4 9 10 11l3 1-13 1v-1l-1-5-2-7z"/>
  <path fill="#9C9AA2" d="M129 137h18c5 0 6-2 7-6l3-14v9l-2 7c0 5-3 6-7 6h-15l-4-2z"/>
  <path fill="#C0BFBE" d="M173 231a59 59 0 0 1-12 1c-9 0-18-1-19 12l1-11c1-1 3-3 5-3l25 1z"/>
  <path fill="#E7E2CE" d="m610 559 2-1 2 6c0 4 0 8-4 12l-2 3-1-2v-6l2-10 1-2z"/>
  <path fill="#B3B2B4" d="m109 74-11 1c-11 0-11 0-14 11l-2 9 1-15c1-6 4-8 10-7l16 1z"/>
  <path fill="#E8E9E7" d="M240 217h42l1 1h-42l-1-1z"/>
  <path fill="#ABABAD" d="M323 159v-1l4-1c7 1 13 0 18-6l13-5-2 2-8 5c-7 6-15 7-25 6z"/>
  <path fill="#C0BFBE" d="m191 159-27 2c-2-3 1-4 3-4h22l2 2z"/>
  <path fill="#D7D4DF" d="m336 139-81-1h81v1z"/>
  <path fill="#ABABAD" d="m230 158-16 2c-3 0-4 1-4 3l-3 11v-3l1-5c1-9 1-9 10-9l12 1z"/>
  <path fill="#AAA6AE" d="M170 333h21l3-17h2l-3 16-3 3-20-2z"/>
  <path fill="#D0D3DA" d="M268 270v1a849 849 0 0 1-43 0l5-1h38z"/>
  <path fill="#8D8B91" d="m245 350 3 2-1 2h-42l4-2h30l6-2z"/>
  <path fill="#DFD8C2" d="M61 554v8l-3 11h-3c-2-5 0-9 2-13l4-6z"/>
  <path fill="#A5A3A8" d="M114 642v1c-12 0-22-2-32-10v-2c9 6 20 10 32 11zM687 231z"/>
  <path fill="#B3B2B4" d="m694 172-4-26-1-4c4 2 3 7 4 10l3 20h-2z"/>
  <path fill="#C8C8C9" d="m164 271-13 1h-12l-4 3-2 1c-1-4 1-6 6-6l25 1z"/>
  <path fill="#AAA6AE" d="M312 194h-3l7-12h-20v-1h23l-7 13z"/>
  <path fill="#C8C8C9" d="m108 374 4-1a1175 1175 0 0 1-4 1z"/>
  <path fill="#A5A3A8" d="M113 271H91l-4 15h-1l2-12c1-3 2-5 6-4l17-1 2 2z"/>
  <path fill="#B4B2BA" d="m152 217 23-1 4-3 2 1-1 2-4 2h-23l-1-1z"/>
  <path fill="#8D8B91" d="M142 357c0-3-1-3-3-3h-27l28-2 2 5z"/>
  <path fill="#AEADB2" d="M182 284v9h20l-3 2h-12l-6-2c-1-2 0-5 1-9z"/>
  <path fill="#B4B2BA" d="m119 334 29-1v2h-25l-4-1z"/>
  <path fill="#AAA6AE" d="M653 379z"/>
  <path fill="#AEADB2" d="M103 387z"/>
  <path fill="#ABABAD" d="M55 573h2v4l1 2a454 454 0 0 1 0 16c0-6 0-11-3-17v-5z"/>
  <path fill="#626069" d="m142 254 28-1-2 2a1121 1121 0 0 1-26-1z"/>
  <path fill="#97969C" d="M157 116h-21l-5 2 2-4 24 2z"/>
  <path fill="#D7D4DF" d="M152 313h-26l-1-2h27v2z"/>
  <path fill="#7B7780" d="m31 332 12 1 15-1c-1 1-2 3-4 3H33l-2-3z"/>
  <path fill="#BCBABC" d="m181 196-8 1h-18l3-2 23 1z"/>
  <path fill="#6B6A73" d="M60 313a4969 4969 0 0 1 0-1v1z"/>
  <path fill="#A5A3A8" d="m599 72 1-2c9 0 17 2 25 6l-19-4h-7z"/>
  <path fill="#BCBABC" d="M106 217z"/>
  <path fill="#A5A3A8" d="M123 232h-23l-4 10 2-10 2-1 23 1z"/>
  <path fill="#8D8B91" d="M183 354h-21l2-2 22 1-3 1z"/>
  <path fill="#A0A4A7" d="m255 138-2-4a243 243 0 0 1 5-18v2l-3 20z"/>
  <path fill="#EBEDEA" d="M117 182h25l-3 2h-18l-4-2z"/>
  <path fill="#85848B" d="M198 216c7 0 14 2 21-2 1 3-1 4-4 4h-14l-3-2z"/>
  <path fill="#A09DA6" d="M96 253a458 458 0 0 1 1 2l-1-2z"/>
  <path fill="#C8C8C9" d="M158 373h24v2h-20l-4-2z"/>
  <path fill="#ABABAD" d="m205 271-14 1h-5l-4 10c-2-6 2-11 7-11h16z"/>
  <path fill="#EBEDEA" d="M161 182h25l-3 2-22-2z"/>
  <path fill="#A5A3A8" d="m200 115-18 1h-5v-2l23 1z"/>
  <path fill="#ABABAD" d="m134 196-13 1-10-1a113 113 0 0 1 23 0z"/>
  <path fill="#E8E9E7" d="m367 116-1-2-4-12 3 2 6 11-3 1h-1z"/>
  <path fill="#AEADB2" d="M187 72z"/>
  <path fill="#A5A3A8" d="m148 335 1-2 4-18h2l-3 17-4 3z"/>
  <path fill="#939195" d="m76 231-22 1 2-2 20 1z"/>
  <path fill="#AAA6AE" d="m60 313 2 4-4 15-1-3 3-16z"/>
  <path fill="#C8C8C9" d="m95 158-23 1 3-2 20 1z"/>
  <path fill="#A09DA6" d="m72 253 5-20-2 13c0 3-1 5-3 8v-1z"/>
  <path fill="#AAA6AE" d="M72 253v1l-5 1H53l-2-2h21z"/>
  <path fill="#8D9CA3" d="M217 311v1l-4 16-1 5c-2-8 0-15 5-22z"/>
  <path fill="#C8C8C9" d="M147 159h-19l-1-1 20 1z"/>
  <path fill="#A5A3A8" d="M107 95v-7l2-13 2 7-4 13z"/>
  <path fill="#85848B" d="m70 408 4-20 1 2-5 18z"/>
  <path fill="#ABABAD" d="M222 196zM175 313l-5 18c0-6 0-13 5-18z"/>
  <path fill="#8D8B91" d="M9 408z"/>
  <path fill="#AEADB2" d="m144 178 3-19 2 2-5 17z"/>
  <path fill="#6B6A73" d="M191 253h20v1l-20-1z"/>
  <path fill="#BCBABC" d="m214 231-19 1 2-2 17 1z"/>
  <path fill="#C8C8C9" d="m162 74-20 1v-2l20 1z"/>
  <path fill="#95909E" d="M283 218v-1h17l-3 4-3-3h-11z"/>
  <path fill="#BCBABC" d="M87 293h22l-20 2-2-2z"/>
  <path fill="#AAA6AE" d="M229 178v-8l2-10 2 4-4 14z"/>
  <path fill="#DFDDDF" d="m592 603 3-18 1 1-4 17zM296 181v1a761 761 0 0 1 0-1z"/>
  <path fill="#9C9AA2" d="M217 137h18v2h-15l-3-2z"/>
  <path fill="#85848B" d="M51 408z"/>
  <path fill="#AEADB2" d="m133 276 2-1-2 14-1 5c-3-1-2-3-1-6l2-12z"/>
  <path fill="#85848B" d="M212 333h12c2 0 4 2 6 4a108 108 0 0 1-18-4z"/>
  <path fill="#D7D4DF" d="M207 182h19c-5 4-12 3-19 0z"/>
  <path fill="#A5A3A8" d="m597 586-2-1 10-5 2-3 1 2c-2 5-6 6-11 7z"/>
  <path fill="#9C9AA2" d="M678 118z"/>
  <path fill="#BCBABC" d="m54 392-4 15v-11l2-4h2z"/>
  <path fill="#6B6A73" d="M218 372v2l-17-1 17-1z"/>
  <path fill="#B3B2B4" d="m219 117-2 15h-2l4-15z"/>
  <path fill="#9C9AA2" d="M125 311v1l-4 14c-1-6-1-11 4-15z"/>
  <path fill="#8D8B91" d="M54 392h-2c0-4 1-6 5-5l16 1h1-16c-3 0-4 1-4 4z"/>
  <path fill="#A09DA6" d="m647 405 4-14a189 189 0 0 1-3 15l-1-1z"/>
  <path fill="#B3B2B4" d="M82 631v2l-11-11 11 9z"/>
  <path fill="#AAA6AE" d="M203 72h-16l1-2 15 2z"/>
  <path fill="#A09DA6" d="M182 375v-2l4-12c0 5 0 10-4 14z"/>
  <path fill="#ABABAD" d="m235 115-15 1 1-2 14 1z"/>
  <path fill="#A09DA6" d="m179 213 4-13c0 4 0 9-4 13zM120 253l3-14c0 5-1 10-3 14z"/>
  <path fill="#E8E9E7" d="m282 306-9-9h2l7 9z"/>
  <path fill="#B3B2B4" d="M142 73v2l-4 11c1-4-1-9 4-13z"/>
  <path fill="#8D8B91" d="M694 172h2l-1 13-1-13z"/>
  <path fill="#AAA6AE" d="m238 129 2-12 2 3-2 9h-2z"/>
  <path fill="#7B7780" d="M172 137h25l-6 1-19-1zM127 158v1c-4 1-7 1-8 7-2-7 0-8 8-8z"/>
  <path fill="#9C9AA2" d="m130 125-1 12-2-4c0-3 2-5 3-8z"/>
  <path fill="#AAA6AE" d="m52 240-1 11-2-1 3-10z"/>
  <path fill="#ABABAD" d="M194 313zM363 146h-2l-2-1-2-6v-1h4c-2 4 1 6 2 8z"/>
  <path fill="#AEADB2" d="M221 293v1c-5-3 0-6 0-9v8z"/>
  <path fill="#AAA6AE" d="m235 139 1-2 2-5h1c0 3 0 6-4 7z"/>
  <path fill="#7FA5B2" d="M336 139v-1h13v1h-13z"/>
  <path fill="#BCBABC" d="M86 286h1v7c-4-1-2-4-1-7z"/>
  <path fill="#7B7780" d="m197 137 1-6-1 6z"/>
  <path fill="#9C9AA2" d="M215 132h2v5l-2-5z"/>
  <path fill="#AEADB2" d="m202 293 1-5-1 5z"/>
  <path fill="#DFDDDF" d="M134 295c0-4 3-1 5-2v2h-5z"/>
  <path fill="#ABABAD" d="m201 197-2 4 2-4z"/>
  <path fill="#9DBDC6" d="M349 139v-1h8v1h-8z"/>
  <path fill="#626069" d="m170 253 2-4-2 4z"/>
  <path fill="#9C9AA2" d="M225 271h1l-3 3 2-3z"/>
  <path fill="#6B6A73" d="m211 253 2-3-2 3z"/>
  <path fill="#AAA6AE" d="m255 182 2-1-2 1z"/>
  <path fill="#ABABAD" d="M196 316h-2v-3l2 3z"/>
  <path fill="#9C9AA2" d="M239 132h-1v-3h2l-1 3z"/>
  <path fill="#DFDDDF" d="M275 297h-2v-2l1-1 1 3z"/>
  <path fill="#6B6A73" d="m190 250 1 3-1-3z"/>
  <path fill="#9C9AA2" d="M155 315h-1l-1-2 2 2z"/>
  <path fill="#DFDDDF" d="M158 293h3l-1 2-2-2z"/>
  <path fill="#95909E" d="M240 216v2l-2-2h2z"/>
  <path fill="#A09DA6" d="m95 252 1 1-1-1z"/>
  <path fill="#9DBDC6" d="m359 145 2 1h-3l1-1z"/>
  <path fill="#ABABAD" d="M251 157v2h-2l2-2z"/>
  <path fill="#8D8B91" d="m205 354-1 1 1-1z"/>
  <path fill="#9C9AA2" d="m667 104-1-1 1 1z"/>
  <path fill="#A5A3A8" d="M626 76h-1 1z"/>
  <path fill="#AEADB2" d="m132 294 2 1-2-1z"/>
  <path fill="#A09DA6" d="m180 216 1-1-1 1z"/>
  <path fill="#DFDDDF" d="m142 295 1-1-1 1z"/>
  <path fill="#9C9AA2" d="m153 312-1-1 1 1z"/>
  <path fill="#FCE405" d="m544 414-10 39-13 52-5 11 4 1h68l5 1-1 8v6l-1 2-3 8c0 5-2 7-7 7H461l1-6 17-69a7958 7958 0 0 0 11-52c-3-3-6-8-12-8l-13-12-26-20-18-13-4-3c-7-7-13-10-17-9l6 6 4 7H304l-7 1-8-2-1-1-1-1-1-1-2-1-23-21 7-1h100c4 0 7-1 9-4 15-31 32-61 48-92l7-10 18 6 6 2 3 1 12 5 1-1-12-7-1-1-2-1-3-2-1-3-28-20-7-3h-37c-1 0-4 0-5 2l-27 45-14 19-21-8-1-4 36-65c8-14 19-23 37-22l21-1c7 0 16-1 23 1 9 3 17 8 25 13l19 12 25 14c3 2 6 4 10 2 5 5 6 10 3 16l1 1v2c-2 1-3 2-3 4l-17 29-16 31h-1l-1 2-1 1-13 29c-6 6-6 7-1 11l60 48 24 19z"/>
  <path fill="#FCE406" d="m194 419-9 37-2 6v1l-2 7v1l-2 6v1l-1 3-1 4v1l-1 3v1l-2 7v1l-4 13c-2 6-1 7 5 7h43l9 3 9 6c3 1 4 4 4 7v2l-3 6c-1 5-3 8-9 8H104c-3-2-3-4-2-7l10-36 22-84c1-4 3-5 7-5h48l5 1z"/>
  <path fill="#68F4FC" d="m605 274-42-1-6-1-3-2-2-14c0-3 1-4 4-4 20-2 37-10 52-24a92 92 0 0 0 27-45l1-28c0-9-2-19-8-27l-10-18h5l4 3 1 3a86 86 0 0 1 32 62c1 16-2 31-6 47l-2 14-1 2-1 2-7 30h-4l-5 1-16-1-13 1z"/>
  <path fill="#F5F6EC" d="m309 271-11-5 12-24 24-46c10-19 25-30 46-31h49l9 3 49 28 1 1-1-1c-4-12-6-25-5-37 2-30 23-53 53-59 29-6 57 7 71 33l-3-1a76 76 0 0 0-41-23c-29-5-55 12-66 37-6 15-6 31-1 47 2 6 6 11 10 17v1l1 7-5-1-61-35c-5-3-10-4-15-5h-37c-19 0-33 8-42 24l-14 26-23 44z"/>
  <path fill="#F9E209" d="m618 417-10 43-6 26-4 4c-18 0-36 3-55 8 7-28 13-54 21-80l54-1z"/>
  <path fill="#FBE40A" d="m639 310-6 22v2h-1a12173 12173 0 0 1-88-2l-43-34c-9-8-8-8-2-19l17-31h2l3 31c0 5 2 8 6 11l20 15c3 2 7 4 10 4l75 1h7z"/>
  <path fill="#0E0219" d="M61 560v-2l17-6 6-2 1 1v3h-1l-6 2 1 2h9l41 1h103l37-1c4 0 7 0 7-5 1-3 5-4 6-2 3 5 8 5 12 7h8l100-1 5-2-11-7 1-3 15-5 2-3 3-1 1-1h1l1-1s0-1 0 0l2-2c5 0 7-3 9-7l2-1c5-2 8-6 9-11l1-1 2-3 1-2 5-7c3-7 6-13 4-21v-6l1-9-4-7-1-5-1-1v-2l13 6c0 4-9 7 0 11l-5 18-6 32-9 31 2 3v2l-6-3c-1 2-2 4-1 6 1 1 3 3 5 3h140a37535 37535 0 0 0 26 3H272a619 619 0 0 1-51-1l-11 1a4360 4360 0 0 1-149-1z"/>
  <path fill="#EFAF07" d="m516 248-17 31c-6 11-7 11 2 19l43 34c2 2 5 2 7 2h81l-2 12c-1 4-4 4-7 4l-57-1h-12c-10 0-18-3-25-9l-40-29-12-7 16-31 17-29c0-2 1-3 3-4l3 5v3z"/>
  <path fill="#F6F7F6" d="m87 538 17-60 18-69 4-3h72l-2 7-24 1-32 1c-5 0-7 2-8 7l-3 14-11 40-15 53-5 21H85l1-4 1-8z"/>
  <path fill="#F2F3E5" d="m432 237-7 10c-16 31-33 61-48 92-2 3-5 4-9 4H268l-8 1-6-3-3-6h109c4 0 6-1 8-5l50-95 5-2 7 2 2 2z"/>
  <path fill="#6AF1FA" d="M393 143h-5l-1-3 2-2a1037 1037 0 0 1 40-1l3-15-1-4-1-3-19-2c-3 0-3-2-3-4 2-8 4-10 13-10h67l-2 4c-3 5-9 7-9 14l-1 1-3 5-1 2-1 2-3 3-1-10c0-3-2-3-5-2-5 1-10 8-10 13l-1 17a468 468 0 0 1-6-1c-6-3-11-7-18-4h-8l-1-1v1h-25z"/>
  <path fill="#F1F3E9" d="m241 442 4-4 16-16c23-13 47-17 73-17 17 1 33 0 50 2 28 4 51 16 65 42l-10-10c-11-9-23-15-36-19l-11-3h-2c-10-2-19-4-29-4-29-2-57-1-83 13-10 6-20 12-28 21-8 10-14 20-17 32-2-14 2-26 8-37z"/>
  <path fill="#F4F4E8" d="M639 310h-7l-75-1c-3 0-7-2-10-4l-20-15c-4-3-6-6-6-11l-3-31 6-12 2-1 5 36c1 6 3 9 7 13 11 11 24 15 40 14 18-2 37-1 55-1h9l-3 13z"/>
  <path fill="#301A0E" d="m254 341 6 3 24 21 2 1v1h1v1h1l1 1a259 259 0 0 0 15 12v1l4 2v1c3 3 7 4 12 4h98v-18l8 6 52 40v1l-3 16-1 1-6 27-1 5h-1l-4 20h-1l-16 63-2-3 9-31 6-32 5-18 10-36 1-4c2-5 1-8-3-11l-26-20a565 565 0 0 0-23-15l-2 4c0 7-1 8-8 8h-90c-8 0-13-3-19-7l-31-25-13-13-5-6z"/>
  <path fill="#F5F4E3" d="m544 414-24-19-60-48c-5-4-5-5 0-11a5710 5710 0 0 1 84 66c2 1 2 3 2 5l-2 7z"/>
  <path fill="#61EDF5" d="M605 369h18l-4 13-3 2a5691 5691 0 0 1-56 0l-17-15h62z"/>
  <path fill="#F5F5E8" d="M593 517h-73l-4-1 5-11h70c7 0 7 0 6 8l-2 4h-2z"/>
  <path fill="#F1E644" d="m309 271 23-44 14-26c9-16 23-24 42-24h37c5 1 10 2 15 5l61 35 5 1-1-7 4 5v5c-4 2-7 0-10-2l-25-14-19-12c-8-5-16-10-25-13-7-2-16-1-23-1l-21 1c-18-1-29 8-37 22l-36 65 1 4 22 8v1l-2 1-24-9-1-1z"/>
  <path fill="#EFAF07" d="M509 216a55 55 0 0 0-4-6l-4-9 7 3c14 10 30 13 47 12 10-1 19-5 28-10 11-7 18-17 24-28l3 2c-1 5-1 11-6 15-3 1-6 1-7 3-7 11-19 16-30 19-10 2-21 2-31 3-5 0-8 1-9 6v2l-1-1-1-1-2 1v5l-2 3-6 2 4-9v-3l-10-9z"/>
  <path fill="#EEA50C" d="M527 226c1-5 4-6 9-6 10-1 21-1 31-3 11-3 23-8 30-19 1-2 4-2 7-3l-1 4c-7 8-12 16-22 21-12 6-25 11-39 9l-1 2-4-1-9-2v-1l-1-1z"/>
  <path fill="#74CFDA" d="M623 110h-5l10 18c6 8 8 18 8 27l-1 28-4 12a92 92 0 0 1-75 57c-3 0-4 1-4 4l2 14 3 2 6 1-11 1-4-24c38-2 65-19 79-53 15-34 8-65-18-92l2-1 12 6z"/>
  <path fill="#F1E644" d="m501 201 4 9c-4-6-8-11-10-17-5-16-5-32 1-47 11-25 37-42 66-37 17 3 30 11 41 23l3 1 1 2c2 7 5 14 6 22l-1 5c1-17-9-28-20-37-7-5-15-9-24-12-14-4-29-3-42 4-6 3-12 10-18 15-10 9-13 22-14 35-1 12 2 23 7 34z"/>
  <path fill="#F7F8EC" d="M619 417h-55c1-11 1-11 12-11h45l-2 11z"/>
  <path fill="#FBFCF9" d="M173 506h49c2 0 4 2 5 3l5 7 1 1 6 7-8-4c-3-3-7-4-11-4h-39c-9 0-10 0-8-10z"/>
  <path fill="#C3C6D2" d="M275 297v-3c8-1 16-2 24-1 5 1 9 4 14 7l-2 13h-23l-6-7-7-9z"/>
  <path fill="#FBF9B2" d="m98 550 5-21 15-53 11-40 3-14c1-5 3-7 8-7l32-1 23-1-1 6-5-1h-48c-4 0-6 1-7 5l-22 84-10 36c-1 3-1 5 2 7h-6z"/>
  <path fill="#0D041C" d="M241 442c-6 11-10 23-8 37v7c-1 9 4 16 6 24h-3v-1c-8-9-8-9-6-23l-5 3c-2 4-8 6-12 4l-3-3 2-4c7-2 5-7 5-11s2-9-4-11l-1-4h7c2 1 2 4 2 6v15l2 4c2-2 5-3 5-5l-1-18v-2c6 1 6-4 6-7 0-6 3-9 8-11z"/>
  <path fill="#64ECF5" d="M320 302h37c1 8-2 11-8 11l-33-1c-3-5 2-7 4-10z"/>
  <path fill="#5DF7FB" d="m451 148 1-17c0-5 5-12 10-13 3-1 5-1 5 2l1 10v1s-1 0 0 0v4l-4 9-1 2v2l-5 6v1l-2-2-1-1-2-1-2-3m7-13h4l2-7-2-1-4 8z"/>
  <path fill="#DEA715" d="M387 213h31l7 3 28 20 1 3-31-14v-1l-31-9c-1-1-3 1-5 2v-4z"/>
  <path fill="#85DCE7" d="M477 117c0-7 6-9 9-14l2-4h-67c-9 0-11 2-13 10 0 2 0 4 3 4a183 183 0 0 1 18 3h-23l2-19h86l-17 20z"/>
  <path fill="#090127" d="M583 558h-58l7-6h48c0 2 5 2 3 6z"/>
  <path fill="#DDAE1C" d="M445 550a3336 3336 0 0 1 13-43l-10 38c0 3 1 4 3 4h130c5 0 7-2 7-7l3-8-1 15-2 1h-11l-50 1h-18l-2-1h-62z"/>
  <path fill="#E6AD12" d="m612 162 1-5c6 28-11 58-39 69-11 5-21 6-33 5l1-2c14 2 27-3 39-9 10-5 15-13 22-21l1-4c5-4 5-10 6-15l-3-2 5-16z"/>
  <path fill="#74CFDA" d="m652 239 2-14c4-16 7-31 6-47 0-10-2-20-7-29-6-13-13-24-25-33l-1-3c6 6 12 10 17 17 18 22 21 48 16 76l-8 33z"/>
  <path fill="#EBE165" d="m392 417 11 3c13 4 25 10 36 19l10 10h1v2l1 1 1 5 3 16v6l-8 24 5-22c3-15-2-28-13-39a94 94 0 0 0-43-22l-4-3z"/>
  <path fill="#E3E1A0" d="M173 506c-2 10-1 10 8 10h39c4 0 8 1 11 4l8 4h1l2 6v3h-1v1c-1-3-2-6-5-7l-9-6-9-3h-43c-6 0-7-1-5-7l4-12-1 7z"/>
  <path fill="#0D031A" d="m242 530-2-6c1-6-2-6-5-7l-1-4 2-3h3l8 9 9 10-14 8-1-4h1v-3z"/>
  <path fill="#3C1F0A" d="M387 217c2-1 4-3 5-2a663 663 0 0 1 24 8l-22-6c-2 0-5 3-6 5l-23 39-2 2v-1l1-4 13-23 1-2 1-1v-1a131 131 0 0 0 4-7l4-7zM423 225l31 14 1 1 2 1 2 2h1l-1 2-3-1-6-1-18-6-2-2h7v-1l-7-4-7-5m19 11-2-1v2l2-1zM310 272l25 9 12 2c1 1 4 0 4-2l8-14 2-4 1-1 1 1-10 20c-1 2-4 3-6 3l-27-6-10-8z"/>
  <path fill="#9DBDC6" d="m387 140 1 2-24 4c-2-2-5-4-3-8l21 1 5 1z"/>
  <path fill="#301A0E" d="m527 551 50-1a460 460 0 0 1-33 2h-12l-5-1zM590 549l2-15v-2l3-15 2-4-1 16-6 20z"/>
  <path fill="#0D041C" d="m261 422-16 16-2-3 12-12 6-1z"/>
  <path fill="#0E0219" d="m67 539 4-19h2v5l-6 22-2 4h-1l3-12z"/>
  <path fill="#74CFDA" d="m643 273 7-30 1-2-8 32z"/>
  <path fill="#98C9DD" d="M320 302c-2 3-7 5-4 10l-5 1 2-13 7 2z"/>
  <path fill="#7C8EA2" d="m389 246 8-15 1 1-9 18-2-1 2-3z"/>
  <path fill="#85DCE7" d="M427 143c7-3 12 1 18 4l-18-4z"/>
  <path fill="#74CFDA" d="M605 274z"/>
  <path fill="#E6AD12" d="m525 226 1 1v8h-3a236 236 0 0 0 0-8l2-1z"/>
  <path fill="#0E0219" d="m87 538-2 8c-3-3-3-6 2-8z"/>
  <path fill="#85DCE7" d="M458 155v-1l5-3-1 7-4-3zM464 144l3-9-2 9h-1z"/>
  <path fill="#E6AD12" d="m528 228 9 2-9-2z"/>
  <path fill="#9DBDC6" d="M394 143z"/>
  <path fill="#6AF1FA" d="m464 151-6 3 5-6h1v3z"/>
  <path fill="#85DCE7" d="M468 133v-3l3-3-3 6z"/>
  <path fill="#A1A5B6" d="m281 270-3-1h5l-2 1z"/>
  <path fill="#E3E1A0" d="m182 469 1-6-1 6z"/>
  <path fill="#74CFDA" d="m634 274 5-1-5 1z"/>
  <path fill="#E3E1A0" d="m175 496 1-6-1 6z"/>
  <path fill="#85DCE7" d="M445 148h6v2l-6-2zM473 123l3-5-3 5z"/>
  <path fill="#0E0219" d="m73 512 1-4h1l-1 4h-1z"/>
  <path fill="#74CFDA" d="m627 113-4-3 4 3z"/>
  <path fill="#0D041C" d="m234 513 1 4h-2l-1-1 2-3z"/>
  <path fill="#E3E1A0" d="m180 477 1-6-1 6zM184 462l1-6-1 6z"/>
  <path fill="#6AF1FA" d="M451 151v-3l2 3h-2z"/>
  <path fill="#85DCE7" d="M464 148h-1v-2h1v2z"/>
  <path fill="#6AF1FA" d="M465 146h-2l1-2h1v2z"/>
  <path fill="#E3E1A0" d="m177 485 1-3-1 3zM179 481v-2 2zM177 489v-2 2z"/>
  <path fill="#F5F6EC" d="m607 135-1-2 1 2z"/>
  <path fill="#85DCE7" d="M453 152h2-2z"/>
  <path fill="#EFAF07" d="M633 333v-1 1z"/>
  <path fill="#85DCE7" d="m472 124 1-1-1 1z"/>
  <path fill="#E6AD12" d="m527 226 1 1-1 1v-2z"/>
  <path fill="#85DCE7" d="M455 153h1-1z"/>
  <path fill="#9DBDC6" d="M418 143v-1l1 1h-1z"/>
  <path fill="#A1A5B6" d="M287 268v-1 1z"/>
  <path fill="#EFAF07" d="M476 305v-1 1zM475 307v-1 1z"/>
  <path fill="#D0D3DA" d="M581 584c2 21-15 43-37 45l-49 1H121c-14 0-27-4-37-14-9-8-12-19-11-31l5-1h503m-215 31c4 4 8 1 12 0 1-1 3-3 3-5l-4-4-7-3c4-4 7-4 11-2 2-3 0-5-2-4l-13 3-1-1c-3-5-7-2-11-2-2 1-4 3-4 5s2 4 4 5l7 3v1l-5 3-7-1c1 5 8 5 15 1l2 1m111-5h1l9 4 5 2v-2l-9-6 4-3c2-3 2-6-2-7-5-3-10-2-13 0v12l2 6 2-5 1-1m-151-14-3 1-9 11-3-9-3-2-2 1-3 15 2 3 1-3 1-5 1-5 6 10 8-10v12l3 3v-3l1-19m141 17c1-2 0-2-2-2l-12 1c2-9 10-3 13-8l-7-1-4-1 4-2 10-2-2-3-13 1-3 3-1 13c-1 3 0 4 3 4l14-3m-206-7-6-10h-2c0 7-3 14-2 21h2l3-13 7 10 2 2 2-3 3-16-1-4-3 4-2 13-3-4m185-11c-6 0-11 3-14 7-3 3-7 6-4 11s7 3 12 2v1l2 3 2-3 2-7-1-3-3 1-6 5c-1 1-3 0-4-1v-4c2-5 8-8 13-8 4 0 3-1 1-4m-103 20 4-2-1-1-12 1c0-8 7-3 10-7l-9-2c3-6 10-2 13-6h-15l-1 2-1 13c-1 3 0 5 3 3l9-1m48-2-3-2 3-3h4l2-2-2-1-6-1c3-6 10-2 13-7l-15 1v1l-3 19c6-3 12-2 17-4l-1-2-9 1m-210-6 6 8h2c0-7 3-14 2-20l-2-1-3 15-11-14c-2 8-5 15-4 22h2l3-15 5 5m231-2 9 11 1-2 2-17-3-3-2 15-11-14c-2 8-5 15-3 22h1l3-15 3 3m-184 3-1 2-2 5 4-3c3-3 10-2 13 1l4 4-2-11c-6-1-2-8-7-11l-9 13m-33-2 9 4v2l-11 2c1 2 2 3 4 3l6-2 5-5-5-4-7-3c4-5 8-3 12-2l-1-4-11 2c-3 1-3 4-1 7m77-4h7c1 4-3 10 2 14l1-5c0-10 0-10 9-12l2-1-4-2-16 3-1 3m-50 3c0-3 1-5 4-5l5-2v-2l-21 3v2l9 1-1 11 1 3 2-3 1-8m-59 10c3 2 3-1 3-2l1-13v-4h-2c-2 6-3 12-2 19z"/>
  <path fill="#100424" d="M581 584h-28l1-7 25 1 28-2v1l-2 3-24 4zM78 584h-5l-3-1c-5 1-8-1-12-4v-3l36 1v7H84c-3-4-4-4-6 0z"/>
  <path fill="#0E0220" d="M382 138H255l3-20 2-2a10644 10644 0 0 1 103 0h66l1 3-1 3v2l-1 4-1 3v1l-1 3-1 3h-1a4647 4647 0 0 1-42 0z"/>
  <path fill="#161726" d="m260 116-2 2v-2h2zM363 116h-2 2z"/>
  <path fill="#ECB012" d="M70 561h539l-2 10-5 1H102l-44 1 3-11 9-1z"/>
  <path fill="#0E0411" d="M144 572h205a19436 19436 0 0 1 153 1l11-1h90l4 1v3l-28 2-25-1-8-1-6 1-33-2h-25l-5 1-13 1-59-1-33 1-4-2h-2l-9 2H192l-30-2-68 2-36-1-1-3h1l45-1h41z"/>
  <path fill="#66460C" d="m607 573-4-1h4v1z"/>
  <path fill="#120722" d="m70 560-9 1v-1h9z"/>
  <path fill="#161726" d="M368 116h-1 1z"/>
  <path fill="#F1AD07" d="m417 366 3 3c-4 0-4 4-4 7 0 11 0 11-11 11h-42l-40 1c-4 0-7-2-10-3l-5-1-4-3-5-4-2-6 7-1h107l6-4z"/>
  <path fill="#F0AB0B" d="M461 549h-10c-2 0-3-1-3-4l10-38 4-20 5-20 1-5 7-28 5-14-2-3v-3c6 0 9 5 12 8v4l-11 48-17 69-1 6z"/>
  <path fill="#EDAA0B" d="m378 233-1 2c-4 5-7 9-9 14l-4 9-3 5-2 4-5 6c-5 8-6 9-12 7h-6v-1l13-19 27-45c1-2 4-2 5-2h6v4l-4 7-4 7v1l-1 1z"/>
  <path fill="#DDAE1C" d="M478 414v3l-52-40-8-6v18h-98c-5 0-9-1-12-4h5c3 1 6 3 10 3l40-1h42c11 0 11 0 11-11 0-3 0-7 5-7a367 367 0 0 1 44 33l13 12z"/>
  <path fill="#FBD708" d="m509 216 10 9v3l-4 9-2 1-1-1c3-6 2-11-3-16v-5z"/>
  <path fill="#F2C203" d="m417 366-6 4-5-7-6-6c4-1 10 2 17 9z"/>
  <path fill="#E6AD12" d="m513 238 2-1a168 168 0 0 1 8-2l-5 13h-2v-3l-3-5v-2z"/>
  <path fill="#8C670C" d="m459 246 1-3 12 7-1 1-12-5z"/>
  <path fill="#DDAE1C" d="m297 371 2 6-10-8 8 2zM595 517l-3 15v-6l1-8 2-1z"/>
  <path fill="#8C670C" d="m450 243 6 1-6-1z"/>
  <path fill="#DEA715" d="m457 241-2-1 2 1z"/>
  <path fill="#DDAE1C" d="m286 366-2-1 2 1zM287 367h-1 1zM288 368h-1 1zM289 369l-1-1 1 1z"/>
  <path fill="#8C670C" d="M460 243h-1 1z"/>
  <path fill="#120722" d="m241 533 1 4 14-8-3 8 7-4 1 10c1 5 5 4 8 5l-2-11c8 4 13 9 22 9 7 0 13 4 19 6-2 4-5 4-8 4l-6 2c-4-2-9-2-12-7-1-2-5-1-6 2 0 5-3 5-7 5l-37 1c-2-3-4-3-5 0h-18l-4-2-38-1h-4l2-2 48-1h9c3 0 6-2 8-3 5 1 7-1 8-5l2-9v-2l1-1z"/>
  <path fill="#0A021A" d="M230 550c-2 1-5 3-8 3h-9a20851 20851 0 0 0-50 3h4l38 1 4 2h-79l5-2 5-2v-2h-13a317 317 0 0 1-18-2l6-1h115z"/>
  <path fill="#120722" d="M109 550v2H99c-5 1-10 1-11 6h-4v-4h1l4-4h20z"/>
  <path fill="#E3E1A0" d="M230 550h-1c5 0 7-3 8-8l3-6-2 9c-1 4-3 6-8 5z"/>
  <path fill="#120722" d="m487 196 1 1-1-1z"/>
  <path fill="#090126" d="m294 558 6-2c3 0 6 0 8-4h12c21 2 41 1 62-1l6-1 2-1 2-1h4l11 7-5 2-100 1h-8z"/>
  <path fill="#25180B" d="m390 549-2 1-6 1c-21 2-41 3-62 1h-12c-6-2-12-6-19-6-9 0-14-5-22-9l-11-8a4043 4043 0 0 0-17-19c-2-8-7-15-6-24 4 13 8 24 18 33l1 1 1 2h1l1 1 1 2h1l2 2 7 5 5 3 12 6 6 2v1h3c4 2 7 3 11 3v1c22 4 44 3 65 1 11 0 21-4 32-7a120 120 0 0 0 7-3l7-2-2 3-15 5-1 3h-4l-2 1z"/>
  <path fill="#0B0127" d="M509 551h3l5 7h-74c-2 0-4-2-5-3-1-2 0-4 1-6l6 3h62l2-1z"/>
  <path fill="#090127" d="M100 552h9l18 1h13v2l-5 2-6 2-41-1c1-5 6-5 11-6h1z"/>
  <path fill="#301A0E" d="M507 552h-62v-2h49l13 1v1z"/>
  <path fill="#120722" d="m517 558-5-7h15l5 1-8 6h-7z"/>
  <path fill="#301A0E" d="m447 503 8-24c2 8-1 14-4 21l-5 7v-3h1v-1z"/>
  <path fill="#EBE165" d="m414 537-6 2 15-9-1 2-2 1-1 1v1h-1l-1 1h-1l-2 1z"/>
  <path fill="#301A0E" d="m455 473-2-15 3 6-1 9zM442 513c-1 5-4 9-10 11v-1l6-7 1-1 1-1 2-1z"/>
  <path fill="#120722" d="M251 560z"/>
  <path fill="#301A0E" d="m422 532 1-2 1-1 3-2 1-1 1-1h2c-2 4-4 7-9 7z"/>
  <path fill="#0A021A" d="M84 554v4h-5l-1-2 6-2z"/>
  <path fill="#EBE165" d="m442 513-2 1 6-10v3l-1 2-2 3-1 1z"/>
  <path fill="#0A021A" d="m89 550-4 4v-3l4-1z"/>
  <path fill="#120722" d="M221 560z"/>
  <path fill="#0A021A" d="M227 559c1-3 3-3 5 0h-5z"/>
  <path fill="#301A0E" d="m443 512 2-3-2 3z"/>
  <path fill="#120722" d="m127 560-4 1 4-1z"/>
  <path fill="#301A0E" d="m420 534 2-2-2 2z"/>
  <path fill="#25180B" d="m414 537 2-1-2 1z"/>
  <path fill="#301A0E" d="m432 524-1 1 1-1zM451 452v-1 1z"/>
  <path fill="#25180B" d="m417 536 1-1-1 1z"/>
  <path fill="#301A0E" d="M419 535v-1 1z"/>
  <path fill="#120722" d="M117 561h-1 1z"/>
  <path fill="#85DCE7" d="M429 124v-1l1-1 1-3v-1l1 4-3 15c-1 2-2 4-5 2l1-1 2-3v-3l1-1v-3l1-4z"/>
  <path fill="#7FA5B2" d="m382 139 7-1-2 2-5-1z"/>
  <path fill="#161726" d="m431 118-2-2h1l1 2z"/>
  <path fill="#FCE305" d="m446 504-6 10-1 1-1 1-9 9-1 1-1 1-3 2-1 1-16 9-7 3h-1l-7 1c-12 5-25 6-37 6h-27l-25-2-12-3-2-1-6-2-12-6-5-3-7-5-2-2-1-1-1-1-1-1-1-1-1-1-1-1-1-4-13-23v-14c3-18 15-31 29-42 19-14 42-20 65-22 18-1 36 0 53 4l6-1h2l4 3c16 4 31 11 43 22 11 11 16 24 13 39l-5 22-1 1m-65-48-1-1-3-3-3-1v-1l-3-1-12-5c-9-2-19-3-29 1l-4 1c-10 2-17 8-24 16-6 8-6 17-4 26 2 5 4 11 10 15l1 2c5 4 11 9 17 12 14 6 29 5 43 1 16-5 27-14 33-29 3-7 2-8-5-8-4 0-6-1-6-5l-3-9v-1l-1-1v-1l-5-5v-2l-1-1z"/>
  <path fill="#EBE165" d="m390 417-6 1c-17-4-35-5-53-4-23 2-46 8-65 22a68 68 0 0 0-29 42v14l13 23 1 4a62 62 0 0 1-18-40c3-12 9-22 17-32 8-9 18-15 28-21 26-14 54-15 83-13 10 0 19 2 29 4z"/>
  <path fill="#DDAE1C" d="M474 435zM466 467zM478 418l2 2-5 14 3-16zM299 377l5 4-5-4zM304 382l4 2-4-2zM468 462l-1 5 1-5z"/>
  <path fill="#DEA715" d="M336 280h6c6 2 7 1 12-7l5-6-8 14c0 2-3 3-4 2l-12-2 1-1z"/>
  <path fill="#FDE503" d="m612 162-5 16c-6 11-13 21-24 28-9 5-18 9-28 10-17 1-33-2-47-12l-7-3c-5-11-8-22-7-34 1-13 4-26 14-35 6-5 12-12 18-15 13-7 28-8 42-4 9 3 17 7 24 12 11 9 21 20 20 37m-29-18c-4-1-4 3-5 5-2 6 0 13 5 16 7 3 15 1 18-4 4-7 3-14-3-18-4-3-11-2-14 1h-1m-57 34c5 15 22 29 39 23 11-4 18-10 22-20 3-6 1-9-6-9h-49c-4 0-6 1-6 6m18-37h-6c-6 0-10 3-12 7-1 6 0 13 5 16 4 3 12 3 16 0 8-6 7-17-3-23z"/>
  <path fill="#EEA50C" d="M523 235h-2l2-3v3zM525 226l-2 1 2-1z"/>
  <path fill="#120722" d="M233 517h2c3 1 6 1 5 6l-1 1-6-7z"/>
  <path fill="#6AF1FA" d="m458 135 4-8 2 1-2 7h-4zM468 131v1-1c-1 0 0 0 0 0z"/>
  <path fill="#161726" d="M427 116h-3 3z"/>
  <path fill="#120722" d="M537 552h7-7z"/>
  <path fill="#0E0219" d="M507 552v-1h2l-2 1z"/>
  <path fill="#120722" d="M242 530v3-3z"/>
  <path fill="#DEA715" d="m364 258 4-9a481 481 0 0 1-3 9zM379 231l4-7-4 7zM383 224l4-7-4 7zM361 263l3-5-1 4-2 1zM378 233l1-1-1 1z"/>
  <path fill="#120722" d="m442 236-2 1v-2l2 1z"/>
  <path fill="#DEA715" d="m359 267 2-4-2 4z"/>
  <path fill="#100424" d="m372 577 33-1 59 1 13-1 41 4-8 1c-2 0-3 2-4 3h-45a874 874 0 0 1-46 0h-59l1-7 9-2h2l4 2zM192 577h128c4 1 6 3 5 7h-59a2049 2049 0 0 1-70 0h-11l-2-4 9-3z"/>
  <path fill="#0D021F" d="m192 577-9 3 2 3-29 1-2-3-2 3H94v-7l68-2 30 2zM506 584c1-1 2-3 4-3l8-1-41-4 5-1h25l33 2 6-1 8 1-1 6-47 1z"/>
  <path fill="#202021" d="m326 596-1 19v3l-3-3v-12l-8 10-6-10-1 5-1 5-1 3-2-3 3-15 2-1 3 2 3 9 9-11 3-1z"/>
  <path fill="#292A2B" d="m466 614-13 2c-3 0-4-1-3-4l1-13 3-3 13-1 2 3-10 2-4 2 4 1 7 1c-3 5-11-1-13 8l12-1c2 0 3 0 1 3z"/>
  <path fill="#130A23" d="M325 584c1-4-1-6-5-7h37l-1 6-22 1-2-3-2 3h-5z"/>
  <path fill="#252526" d="m261 607 3 3 2-13 3-4 1 4a311 311 0 0 1-5 19l-2-2-7-10-3 13h-2c-1-7 2-14 2-21h2l6 11z"/>
  <path fill="#232425" d="M446 596c2 2 3 3-1 3-5 0-11 3-13 8v4c1 1 3 2 4 1l6-5 3-1 1 3-2 7-2 3-2-3v-1c-5 1-9 3-12-2s1-8 4-11c3-4 8-7 14-6z"/>
  <path fill="#202021" d="M476 610v1l-2 5-2-6v-12c3-2 8-3 13 0 4 1 4 4 2 7l-4 3 9 6v2l-5-2-9-5 2-3 5-4-6-2h-3v10z"/>
  <path fill="#272829" d="m343 615-9 1c-3 2-4 0-3-3l1-13 1-2h15c-3 4-10 0-13 6l9 2c-3 4-10-1-10 7l12-1 1 1-4 2z"/>
  <path fill="#232425" d="m391 613 9-1 1 2c-5 2-11 1-17 4l3-19v-1l15-1c-3 5-10 1-13 7l6 1 2 1-2 2h-4l-3 3 3 2zM181 607l-5-5-3 15h-2c-1-7 2-14 4-22l11 14 3-15 2 1c1 6-2 13-2 20h-2l-6-8z"/>
  <path fill="#202021" d="m412 605-3-3-3 15h-1c-2-7 1-14 3-22l11 14 2-15 3 3-2 17-1 2-9-11z"/>
  <path fill="#232425" d="m228 608 9-13c5 3 1 10 7 11l2 11-4-4c-3-3-10-4-13-1l-4 3 2-5 1-2m10-4-1-3-4 7c5 0 5 0 5-4z"/>
  <path fill="#272829" d="M195 605c-2-2-2-5 1-6l11-2 1 4c-4-1-8-3-12 2l7 3 5 4-5 5-6 2c-2 0-3-1-4-3l11-2v-2l-9-5z"/>
  <path fill="#292A2B" d="M364 614c-7 4-14 4-15-1l7 1 5-3v-1l-7-3c-2-1-4-3-4-5s2-4 4-5c4 0 8-3 11 3-4 0-9-2-13 3l9 4c4 1 5 3 3 7zM367 600l12-3c2-1 4 1 2 4-4-2-7-2-11 2l7 3 4 4c0 2-2 4-3 5-4 1-8 4-12-1 4-1 9 1 12-4-4-3-13-1-11-10z"/>
  <path fill="#C2C5CB" d="M367 600c-2 9 7 7 11 10-3 5-8 3-12 4h-2c2-4 1-6-3-7l-9-4c4-5 9-3 13-3h2z"/>
  <path fill="#292A2B" d="m272 601 1-2 16-3 4 2-2 1c-9 2-9 2-9 12l-1 5c-5-4-1-10-2-14l-7-1z"/>
  <path fill="#272829" d="m222 605-1 8-2 3-1-3 1-11-9-1v-2l21-3v2l-5 2c-3 0-4 2-4 5z"/>
  <path fill="#292A2B" d="M163 615c-1-7 0-13 2-19h2v4l-1 13c0 1 0 4-3 2z"/>
  <path fill="#B4B2BA" d="M476 610v-10h3l6 2-5 4-3 3-1 1z"/>
  <path fill="#130A23" d="M196 584c4-4 9-2 14-1l-14 1z"/>
  <path fill="#0D021F" d="M78 584c2-4 3-4 6-1l-6 1z"/>
  <path fill="#130A23" d="M455 584c2-3 4-2 6 0h-6zM415 584c2-3 4-2 6 0h-6z"/>
  <path fill="#100424" d="m330 584 2-3 2 2-4 1zM152 584l2-3 2 2-4 1z"/>
  <path fill="#161726" d="m429 124-1 4 1-4zM426 135l-1 3 1-3zM429 122v1-1zM427 131v1-1z"/>
  <path fill="#66460C" d="m513 572-11 1a795 795 0 0 1 11-1zM128 572zM349 572l-9 1 9-1zM144 572h-8 8z"/>
  <path fill="#130A23" d="M366 575zM372 577l-4-2 4 2z"/>
  <path fill="#0D031A" d="m256 529 11 8 2 11c-3-1-7 0-8-5l-1-10-7 4 3-8z"/>
  <path fill="#0A021A" d="M100 552h-1 1z"/>
  <path fill="#0E0219" d="m382 551 6-1-6 1zM390 549l2-1-2 1z"/>
  <path fill="#EBE165" d="m303 548 25 1h27c12 0 25-1 37-6l7-1c-10 3-20 7-31 7-21 2-43 3-65-1zM271 535zM292 544zM259 527l7 5-7-5zM400 542l7-3-7 3zM266 532l5 3-5-3zM283 541l6 2-6-2zM257 525l2 2-2-2zM289 544h2-2zM251 519l1 1-1-1zM255 523l1 1-1-1zM254 522l1 1-1-1zM252 520l1 1-1-1zM447 504v-1 1zM429 525l9-9-6 7-1 2h-2zM438 516l1-1-1 1zM424 529l3-2-3 2zM428 526l1-1-1 1zM423 530l1-1-1 1z"/>
  <path fill="#F4F5EB" d="m309 504-2-1-3-9 15 11c17 8 35 7 51-1 10-4 17-11 19-21l1-1 6 1c4 0 5 2 4 5-4 10-10 18-20 23-9 5-19 7-29 8-13 0-25-2-35-10l-7-5z"/>
  <path fill="#F1EA78" d="m309 505 7 4c10 8 22 10 35 10 10-1 20-3 29-8 10-5 16-13 20-23 1-3 0-5-4-5l-6-1-2-15 3 9c0 4 2 5 6 5 7 0 8 1 5 8-6 15-17 24-33 29-14 4-29 5-43-1-6-3-12-8-17-12z"/>
  <path fill="#44330A" d="M331 445c9-4 19-3 28-1l12 5 3 2h1l2 1 1 3-5-2c-5-2-10-6-16-7l-26-1z"/>
  <path fill="#F1EA78" d="m303 494 4 8c-5-3-7-9-9-14-2-9-2-18 4-26l1 1c-6 10-6 19-1 29l1 2z"/>
  <path fill="#44330A" d="M303 463v-1c6-8 13-14 23-16l5-1-17 10-11 8zM388 467l1 15c-3-8-2-16-8-22v-2h1l1 1 4 6 1 2z"/>
  <path fill="#F1EA78" d="M387 464zM378 455l-1-3 3 3-1 1-1-1zM374 451l-2-2 2 2zM377 452l-2-1 2 1zM382 458h-1v-2l1 2zM388 467l-1-2 1 2zM380 455l1 1h-1v-1z"/>
  <path fill="#D9C530" d="M526 178c0-5 2-6 6-6h49c7 0 9 3 6 9-4 10-11 16-22 20-17 6-34-8-39-23m41 20c10-4 17-12 19-23h-58c3 18 22 29 39 23zM544 142c10 5 11 16 3 22-4 3-12 3-16 0-5-3-6-10-5-16 2-4 6-7 12-7l6 1m3 5v-1l-4-2c-5-3-11-1-14 3-2 5-1 12 3 15s10 3 14-1 5-9 1-14zM584 144c3-3 10-4 14-1 6 4 7 11 3 18-3 5-11 7-18 4-5-3-7-10-5-16 1-2 1-6 6-5l-2 2c-3 4-4 10-1 14s9 5 14 3 7-7 6-12-5-8-11-8l-6 1z"/>
  <path fill="#B4B2BA" d="M238 604c0 4 0 4-5 4l4-7 1 3z"/>
  <path fill="#120A22" d="M379 456h1l1 2v2c6 6 5 14 8 22-2 11-9 18-19 22-16 8-34 9-51 1l-15-11-1-1-1-2c-5-9-5-18 1-28l11-8 17-10 26 1c6 1 11 5 16 7a34 34 0 0 0 6 3m-13 4h1c-6-6-13-8-22-7h-5l-16 4c-10 7-14 17-11 27l5 7c4 6 11 7 18 10h16c9-2 17-5 21-15l3-12-5-10-5-4z"/>
  <path fill="#F4F5EB" d="m302 492 1 2-1-2z"/>
  <path fill="#14081A" d="M567 198c-17 6-36-5-39-23h58c-2 11-9 19-19 23z"/>
  <path fill="#2A180A" d="M547 147c4 5 3 10-1 14s-10 4-14 1-5-10-3-15c3-4 9-6 14-3 2 0 3 1 4 3l-4-1c-4-3-7-1-10 1-4 3-4 9 0 13 2 3 8 2 11 0 4-4 3-9 3-13zM584 144l6-1c6 0 10 3 11 8s-1 10-6 12-11 1-14-3-2-10 1-14l2-2m-2 9c2 3 2 7 5 8 3 3 10-1 12-5 1-5-2-10-8-11-4-1-8 3-9 8z"/>
  <path fill="#A09DA6" d="M325 459c-7 5-12 11-11 20l4 12-5-7c-3-10 1-20 12-27v2z"/>
  <path fill="#AEADB2" d="m348 500 18-7 7-6c-4 9-12 12-21 14h-4v-1z"/>
  <path fill="#B4B2BA" d="M366 460c-6-4-13-5-20-7 8-1 15 1 20 7zM325 459v-2l16-4a83 83 0 0 1-16 6zM375 474l-9-14 5 4 4 10z"/>
  <path fill="#8D8B91" d="m347 500 1 1h-13l12-1z"/>
  <path fill="#0D041C" d="M547 147c0 4 1 9-3 13-3 2-9 3-11 0-4-4-4-10 0-13 3-2 6-4 10-1l4 1zM582 153c1-5 5-9 9-8 6 1 9 6 8 11-2 4-9 8-12 5-3-1-3-5-5-8z"/>
</svg>